<mxfile host="app.diagrams.net" agent="Mozilla/5.0 (Windows NT 10.0; Win64; x64; rv:142.0) Gecko/20100101 Firefox/142.0" version="28.1.2">
  <diagram name="Pagina-1" id="q-v014Gw9bootYPPH7_h">
    <mxGraphModel dx="786" dy="419" grid="1" gridSize="10" guides="1" tooltips="1" connect="1" arrows="1" fold="1" page="1" pageScale="1" pageWidth="827" pageHeight="1169" math="0" shadow="0">
      <root>
        <mxCell id="0" />
        <mxCell id="1" parent="0" />
        <mxCell id="enffz51KQ3bBpn6qqEa7-1" value="" style="sketch=0;outlineConnect=0;fontColor=#232F3E;gradientColor=none;fillColor=#232F3D;strokeColor=none;dashed=0;verticalLabelPosition=bottom;verticalAlign=top;align=center;html=1;fontSize=16;fontStyle=0;aspect=fixed;pointerEvents=1;shape=mxgraph.aws4.source_code;fontFamily=Verdana;" parent="1" vertex="1">
          <mxGeometry x="92.95999999999998" y="290" width="35.08" height="48" as="geometry" />
        </mxCell>
        <mxCell id="enffz51KQ3bBpn6qqEa7-2" value="" style="rounded=1;whiteSpace=wrap;html=1;arcSize=3;fillColor=#ffe6cc;strokeColor=#d79b00;fontSize=16;fontFamily=Verdana;" parent="1" vertex="1">
          <mxGeometry x="550" y="516" width="480" height="160" as="geometry" />
        </mxCell>
        <mxCell id="enffz51KQ3bBpn6qqEa7-3" value="" style="rounded=1;whiteSpace=wrap;html=1;arcSize=3;fillColor=#fff2cc;strokeColor=#d6b656;fontSize=16;fontFamily=Verdana;" parent="1" vertex="1">
          <mxGeometry x="1000" y="160" width="360" height="296" as="geometry" />
        </mxCell>
        <mxCell id="enffz51KQ3bBpn6qqEa7-4" value="" style="rounded=1;whiteSpace=wrap;html=1;arcSize=3;fillColor=#fff2cc;strokeColor=#d6b656;fontSize=16;fontFamily=Verdana;" parent="1" vertex="1">
          <mxGeometry x="615" y="160" width="320" height="296" as="geometry" />
        </mxCell>
        <mxCell id="enffz51KQ3bBpn6qqEa7-5" value="" style="rounded=1;whiteSpace=wrap;html=1;arcSize=3;fillColor=#fff2cc;strokeColor=#d6b656;fontSize=16;fontFamily=Verdana;" parent="1" vertex="1">
          <mxGeometry x="240" y="160" width="320" height="296" as="geometry" />
        </mxCell>
        <mxCell id="enffz51KQ3bBpn6qqEa7-6" value="&lt;font face=&quot;Helvetica&quot;&gt;FAULT LOCALIZATION&lt;/font&gt;" style="text;html=1;align=center;verticalAlign=middle;whiteSpace=wrap;rounded=0;fontSize=16;fontFamily=Verdana;" parent="1" vertex="1">
          <mxGeometry x="665" y="166" width="220" height="30" as="geometry" />
        </mxCell>
        <mxCell id="enffz51KQ3bBpn6qqEa7-7" value="TEST AND COVERAGE" style="text;html=1;align=center;verticalAlign=middle;whiteSpace=wrap;rounded=0;fontSize=16;fontFamily=Helvetica;" parent="1" vertex="1">
          <mxGeometry x="260" y="166" width="280" height="30" as="geometry" />
        </mxCell>
        <mxCell id="enffz51KQ3bBpn6qqEa7-8" value="&lt;font face=&quot;Helvetica&quot;&gt;VISUALIZATION&lt;/font&gt;" style="text;html=1;align=center;verticalAlign=middle;whiteSpace=wrap;rounded=0;fontSize=16;fontFamily=Verdana;" parent="1" vertex="1">
          <mxGeometry x="1065" y="166" width="220" height="30" as="geometry" />
        </mxCell>
        <mxCell id="enffz51KQ3bBpn6qqEa7-9" value="&lt;div&gt;CLI&lt;/div&gt;" style="rounded=0;whiteSpace=wrap;html=1;fillColor=#dae8fc;strokeColor=#6c8ebf;fontSize=16;fontFamily=Verdana;" parent="1" vertex="1">
          <mxGeometry x="715" y="24" width="120" height="60" as="geometry" />
        </mxCell>
        <mxCell id="enffz51KQ3bBpn6qqEa7-10" value="Test Runner" style="rounded=0;whiteSpace=wrap;html=1;fillColor=#d5e8d4;strokeColor=#82b366;fontSize=16;fontFamily=Verdana;" parent="1" vertex="1">
          <mxGeometry x="274" y="217" width="120" height="60" as="geometry" />
        </mxCell>
        <mxCell id="enffz51KQ3bBpn6qqEa7-11" value="FL Engine" style="rounded=0;whiteSpace=wrap;html=1;fillColor=#d5e8d4;strokeColor=#82b366;fontSize=16;fontFamily=Verdana;" parent="1" vertex="1">
          <mxGeometry x="649" y="217" width="120" height="60" as="geometry" />
        </mxCell>
        <mxCell id="enffz51KQ3bBpn6qqEa7-12" value="&lt;div&gt;Dashboard&lt;/div&gt;&lt;div&gt;Web app&lt;/div&gt;" style="rounded=0;whiteSpace=wrap;html=1;fillColor=#dae8fc;strokeColor=#6c8ebf;fontSize=16;fontFamily=Verdana;" parent="1" vertex="1">
          <mxGeometry x="1115" y="217" width="120" height="60" as="geometry" />
        </mxCell>
        <mxCell id="enffz51KQ3bBpn6qqEa7-13" value="CLI options" style="rounded=0;whiteSpace=wrap;html=1;fillColor=#e1d5e7;strokeColor=#9673a6;fontSize=16;fontFamily=Verdana;" parent="1" vertex="1">
          <mxGeometry x="830" y="566" width="120" height="60" as="geometry" />
        </mxCell>
        <mxCell id="enffz51KQ3bBpn6qqEa7-14" value="&lt;font face=&quot;Helvetica&quot;&gt;CONFIGURATION&lt;/font&gt;" style="text;html=1;align=center;verticalAlign=middle;whiteSpace=wrap;rounded=0;fontSize=16;fontFamily=Verdana;" parent="1" vertex="1">
          <mxGeometry x="685" y="517" width="220" height="30" as="geometry" />
        </mxCell>
        <mxCell id="enffz51KQ3bBpn6qqEa7-15" value="floss.conf file" style="rounded=0;whiteSpace=wrap;html=1;fillColor=#e1d5e7;strokeColor=#9673a6;fontSize=16;fontFamily=Verdana;" parent="1" vertex="1">
          <mxGeometry x="630" y="566" width="120" height="60" as="geometry" />
        </mxCell>
        <mxCell id="enffz51KQ3bBpn6qqEa7-16" value="Source Code" style="sketch=0;outlineConnect=0;fontColor=#232F3E;gradientColor=none;fillColor=#232F3D;strokeColor=none;dashed=0;verticalLabelPosition=bottom;verticalAlign=top;align=center;html=1;fontSize=16;fontStyle=0;aspect=fixed;pointerEvents=1;shape=mxgraph.aws4.source_code;fontFamily=Verdana;" parent="1" vertex="1">
          <mxGeometry x="90" y="163" width="35.08" height="48" as="geometry" />
        </mxCell>
        <mxCell id="enffz51KQ3bBpn6qqEa7-17" value="" style="image;aspect=fixed;html=1;points=[];align=center;fontSize=16;image=img/lib/azure2/general/Load_Test.svg;fontFamily=Verdana;" parent="1" vertex="1">
          <mxGeometry x="115.14999999999999" y="321" width="27.39" height="26.59" as="geometry" />
        </mxCell>
        <mxCell id="enffz51KQ3bBpn6qqEa7-18" value="&lt;font&gt;Test suite&lt;/font&gt;" style="text;html=1;align=center;verticalAlign=middle;resizable=0;points=[];autosize=1;strokeColor=none;fillColor=none;fontSize=16;fontFamily=Verdana;" parent="1" vertex="1">
          <mxGeometry x="57.54" y="350" width="100" height="30" as="geometry" />
        </mxCell>
        <mxCell id="enffz51KQ3bBpn6qqEa7-19" value="Test Config" style="rounded=0;whiteSpace=wrap;html=1;fillColor=#f8cecc;strokeColor=#b85450;fontSize=16;fontFamily=Verdana;" parent="1" vertex="1">
          <mxGeometry x="339" y="351" width="120" height="60" as="geometry" />
        </mxCell>
        <mxCell id="enffz51KQ3bBpn6qqEa7-20" value="FL Config" style="rounded=0;whiteSpace=wrap;html=1;fillColor=#f8cecc;strokeColor=#b85450;fontSize=16;fontFamily=Verdana;" parent="1" vertex="1">
          <mxGeometry x="785" y="350" width="120" height="60" as="geometry" />
        </mxCell>
        <mxCell id="enffz51KQ3bBpn6qqEa7-21" value="UI Config" style="rounded=0;whiteSpace=wrap;html=1;fillColor=#f8cecc;strokeColor=#b85450;fontSize=16;fontFamily=Verdana;" parent="1" vertex="1">
          <mxGeometry x="1115" y="351" width="120" height="60" as="geometry" />
        </mxCell>
        <mxCell id="enffz51KQ3bBpn6qqEa7-22" value="Use" style="endArrow=open;endSize=12;dashed=1;html=1;rounded=0;exitX=0.5;exitY=1;exitDx=0;exitDy=0;entryX=0.5;entryY=0;entryDx=0;entryDy=0;labelBackgroundColor=#FFF4C3;fontSize=16;fontFamily=Verdana;" parent="1" source="enffz51KQ3bBpn6qqEa7-10" target="enffz51KQ3bBpn6qqEa7-19" edge="1">
          <mxGeometry width="160" relative="1" as="geometry">
            <mxPoint x="514" y="337" as="sourcePoint" />
            <mxPoint x="400" y="337.4100000000001" as="targetPoint" />
            <Array as="points">
              <mxPoint x="334" y="307" />
              <mxPoint x="400" y="307" />
            </Array>
          </mxGeometry>
        </mxCell>
        <mxCell id="enffz51KQ3bBpn6qqEa7-24" value="Use" style="endArrow=open;endSize=12;dashed=1;html=1;rounded=0;exitX=0.5;exitY=1;exitDx=0;exitDy=0;labelBackgroundColor=#FFF4C3;fontSize=16;fontFamily=Verdana;entryX=0.5;entryY=0;entryDx=0;entryDy=0;" parent="1" source="enffz51KQ3bBpn6qqEa7-12" target="enffz51KQ3bBpn6qqEa7-21" edge="1">
          <mxGeometry width="160" relative="1" as="geometry">
            <mxPoint x="755" y="287" as="sourcePoint" />
            <mxPoint x="1175" y="338" as="targetPoint" />
          </mxGeometry>
        </mxCell>
        <mxCell id="enffz51KQ3bBpn6qqEa7-25" value="Read" style="endArrow=classic;html=1;rounded=0;exitX=0.5;exitY=1;exitDx=0;exitDy=0;entryX=0;entryY=0.5;entryDx=0;entryDy=0;fontSize=16;fontFamily=Verdana;" parent="1" source="enffz51KQ3bBpn6qqEa7-19" target="enffz51KQ3bBpn6qqEa7-2" edge="1">
          <mxGeometry x="-0.3492" width="50" height="50" relative="1" as="geometry">
            <mxPoint x="740" y="396" as="sourcePoint" />
            <mxPoint x="790" y="346" as="targetPoint" />
            <Array as="points">
              <mxPoint x="400" y="596" />
            </Array>
            <mxPoint as="offset" />
          </mxGeometry>
        </mxCell>
        <mxCell id="enffz51KQ3bBpn6qqEa7-26" value="" style="endArrow=classic;html=1;rounded=0;exitX=0.5;exitY=1;exitDx=0;exitDy=0;entryX=0.5;entryY=0;entryDx=0;entryDy=0;fontSize=16;fontFamily=Verdana;" parent="1" source="enffz51KQ3bBpn6qqEa7-20" target="enffz51KQ3bBpn6qqEa7-2" edge="1">
          <mxGeometry width="50" height="50" relative="1" as="geometry">
            <mxPoint x="685" y="396" as="sourcePoint" />
            <mxPoint x="845" y="496" as="targetPoint" />
            <Array as="points">
              <mxPoint x="845" y="480" />
              <mxPoint x="790" y="480" />
            </Array>
          </mxGeometry>
        </mxCell>
        <mxCell id="enffz51KQ3bBpn6qqEa7-27" value="&lt;div&gt;Read&lt;/div&gt;" style="edgeLabel;html=1;align=center;verticalAlign=middle;resizable=0;points=[];fontSize=16;fontFamily=Verdana;" parent="enffz51KQ3bBpn6qqEa7-26" vertex="1" connectable="0">
          <mxGeometry x="-0.0422" y="-1" relative="1" as="geometry">
            <mxPoint x="-21" as="offset" />
          </mxGeometry>
        </mxCell>
        <mxCell id="enffz51KQ3bBpn6qqEa7-28" value="" style="endArrow=classic;html=1;rounded=0;entryX=0;entryY=0.25;entryDx=0;entryDy=0;fontSize=16;fontFamily=Verdana;" parent="1" source="enffz51KQ3bBpn6qqEa7-16" target="enffz51KQ3bBpn6qqEa7-10" edge="1">
          <mxGeometry width="50" height="50" relative="1" as="geometry">
            <mxPoint x="610" y="373" as="sourcePoint" />
            <mxPoint x="660" y="323" as="targetPoint" />
            <Array as="points">
              <mxPoint x="190" y="187" />
              <mxPoint x="190" y="232" />
            </Array>
          </mxGeometry>
        </mxCell>
        <mxCell id="enffz51KQ3bBpn6qqEa7-29" value="" style="endArrow=classic;html=1;rounded=0;entryX=0;entryY=0.75;entryDx=0;entryDy=0;fontSize=16;fontFamily=Verdana;" parent="1" source="enffz51KQ3bBpn6qqEa7-1" target="enffz51KQ3bBpn6qqEa7-10" edge="1">
          <mxGeometry width="50" height="50" relative="1" as="geometry">
            <mxPoint x="170" y="347" as="sourcePoint" />
            <mxPoint x="284" y="263" as="targetPoint" />
            <Array as="points">
              <mxPoint x="190" y="314" />
              <mxPoint x="190" y="262" />
            </Array>
          </mxGeometry>
        </mxCell>
        <mxCell id="enffz51KQ3bBpn6qqEa7-30" value="" style="endArrow=classic;html=1;rounded=0;entryX=0;entryY=0.5;entryDx=0;entryDy=0;exitX=1;exitY=0.5;exitDx=0;exitDy=0;fontSize=16;fontFamily=Verdana;" parent="1" source="enffz51KQ3bBpn6qqEa7-39" target="enffz51KQ3bBpn6qqEa7-12" edge="1">
          <mxGeometry width="50" height="50" relative="1" as="geometry">
            <mxPoint x="995" y="247" as="sourcePoint" />
            <mxPoint x="990" y="317" as="targetPoint" />
          </mxGeometry>
        </mxCell>
        <mxCell id="enffz51KQ3bBpn6qqEa7-33" value="" style="endArrow=classic;html=1;rounded=0;exitX=0;exitY=0.5;exitDx=0;exitDy=0;entryX=0.5;entryY=0;entryDx=0;entryDy=0;fontSize=16;fontFamily=Verdana;" parent="1" source="enffz51KQ3bBpn6qqEa7-9" target="enffz51KQ3bBpn6qqEa7-5" edge="1">
          <mxGeometry width="50" height="50" relative="1" as="geometry">
            <mxPoint x="790" y="316" as="sourcePoint" />
            <mxPoint x="430" y="86" as="targetPoint" />
            <Array as="points">
              <mxPoint x="400" y="54" />
            </Array>
          </mxGeometry>
        </mxCell>
        <mxCell id="enffz51KQ3bBpn6qqEa7-34" value="test/run" style="edgeLabel;html=1;align=center;verticalAlign=middle;resizable=0;points=[];labelBackgroundColor=default;fontSize=16;fontFamily=Verdana;" parent="enffz51KQ3bBpn6qqEa7-33" vertex="1" connectable="0">
          <mxGeometry x="0.6733" y="-2" relative="1" as="geometry">
            <mxPoint y="17" as="offset" />
          </mxGeometry>
        </mxCell>
        <mxCell id="enffz51KQ3bBpn6qqEa7-35" value="" style="endArrow=classic;html=1;rounded=0;exitX=1;exitY=0.5;exitDx=0;exitDy=0;entryX=0.5;entryY=0;entryDx=0;entryDy=0;fontSize=16;fontFamily=Verdana;" parent="1" source="enffz51KQ3bBpn6qqEa7-9" target="enffz51KQ3bBpn6qqEa7-3" edge="1">
          <mxGeometry width="50" height="50" relative="1" as="geometry">
            <mxPoint x="790" y="316" as="sourcePoint" />
            <mxPoint x="840" y="266" as="targetPoint" />
            <Array as="points">
              <mxPoint x="1180" y="54" />
            </Array>
          </mxGeometry>
        </mxCell>
        <mxCell id="enffz51KQ3bBpn6qqEa7-36" value="ui" style="edgeLabel;html=1;align=center;verticalAlign=middle;resizable=0;points=[];fontSize=16;fontFamily=Verdana;" parent="enffz51KQ3bBpn6qqEa7-35" vertex="1" connectable="0">
          <mxGeometry x="0.6616" y="-2" relative="1" as="geometry">
            <mxPoint y="25" as="offset" />
          </mxGeometry>
        </mxCell>
        <mxCell id="enffz51KQ3bBpn6qqEa7-37" value="" style="endArrow=classic;html=1;rounded=0;exitX=0.5;exitY=1;exitDx=0;exitDy=0;entryX=0.5;entryY=0;entryDx=0;entryDy=0;fontSize=16;fontFamily=Verdana;" parent="1" source="enffz51KQ3bBpn6qqEa7-9" target="enffz51KQ3bBpn6qqEa7-4" edge="1">
          <mxGeometry width="50" height="50" relative="1" as="geometry">
            <mxPoint x="735" y="316" as="sourcePoint" />
            <mxPoint x="815" y="96" as="targetPoint" />
          </mxGeometry>
        </mxCell>
        <mxCell id="enffz51KQ3bBpn6qqEa7-38" value="fl/run" style="edgeLabel;html=1;align=center;verticalAlign=middle;resizable=0;points=[];fontSize=16;fontFamily=Verdana;" parent="enffz51KQ3bBpn6qqEa7-37" vertex="1" connectable="0">
          <mxGeometry x="-0.017" y="2" relative="1" as="geometry">
            <mxPoint y="-3" as="offset" />
          </mxGeometry>
        </mxCell>
        <mxCell id="enffz51KQ3bBpn6qqEa7-39" value="&lt;div&gt;FL results&lt;/div&gt;" style="shape=image;html=1;verticalAlign=top;verticalLabelPosition=bottom;labelBackgroundColor=none;imageAspect=0;aspect=fixed;image=https://icons.diagrams.net/icon-cache1/48_Bubbles-2335/13.Clipboard-635.svg;fontSize=16;fontFamily=Verdana;" parent="1" vertex="1">
          <mxGeometry x="850" y="223" width="48" height="48" as="geometry" />
        </mxCell>
        <mxCell id="enffz51KQ3bBpn6qqEa7-40" value="&lt;div&gt;&lt;span&gt;Coverage&lt;/span&gt;&lt;/div&gt;&lt;div&gt;&lt;span&gt;matrix&lt;/span&gt;&lt;/div&gt;" style="shape=image;html=1;verticalAlign=top;verticalLabelPosition=bottom;labelBackgroundColor=none;imageAspect=0;aspect=fixed;image=https://icons.diagrams.net/icon-cache1/48_Bubbles-2335/13.Clipboard-635.svg;fontSize=16;fontFamily=Verdana;imageBackground=none;imageBorder=none;" parent="1" vertex="1">
          <mxGeometry x="470" y="223" width="48" height="48" as="geometry" />
        </mxCell>
        <mxCell id="enffz51KQ3bBpn6qqEa7-41" value="" style="endArrow=classic;html=1;rounded=0;exitX=1;exitY=0.5;exitDx=0;exitDy=0;entryX=0;entryY=0.5;entryDx=0;entryDy=0;fontSize=16;fontFamily=Verdana;" parent="1" source="enffz51KQ3bBpn6qqEa7-10" target="enffz51KQ3bBpn6qqEa7-40" edge="1">
          <mxGeometry width="50" height="50" relative="1" as="geometry">
            <mxPoint x="804" y="337" as="sourcePoint" />
            <mxPoint x="474" y="247" as="targetPoint" />
          </mxGeometry>
        </mxCell>
        <mxCell id="enffz51KQ3bBpn6qqEa7-42" value="" style="endArrow=classic;html=1;rounded=0;exitX=1;exitY=0.5;exitDx=0;exitDy=0;entryX=0;entryY=0.5;entryDx=0;entryDy=0;fontSize=16;fontFamily=Verdana;" parent="1" source="enffz51KQ3bBpn6qqEa7-40" target="enffz51KQ3bBpn6qqEa7-11" edge="1">
          <mxGeometry width="50" height="50" relative="1" as="geometry">
            <mxPoint x="650" y="317" as="sourcePoint" />
            <mxPoint x="700" y="267" as="targetPoint" />
          </mxGeometry>
        </mxCell>
        <mxCell id="enffz51KQ3bBpn6qqEa7-43" value="" style="endArrow=classic;html=1;rounded=0;exitX=1;exitY=0.5;exitDx=0;exitDy=0;entryX=0;entryY=0.5;entryDx=0;entryDy=0;fontSize=16;fontFamily=Verdana;" parent="1" source="enffz51KQ3bBpn6qqEa7-11" target="enffz51KQ3bBpn6qqEa7-39" edge="1">
          <mxGeometry width="50" height="50" relative="1" as="geometry">
            <mxPoint x="785" y="257" as="sourcePoint" />
            <mxPoint x="852" y="257" as="targetPoint" />
          </mxGeometry>
        </mxCell>
        <mxCell id="enffz51KQ3bBpn6qqEa7-47" value="&lt;div&gt;SBFL&lt;/div&gt;&lt;div&gt;formulas&lt;/div&gt;" style="shape=image;html=1;verticalAlign=top;verticalLabelPosition=bottom;labelBackgroundColor=light-dark(#FFF4C3,#121212);imageAspect=0;aspect=fixed;image=https://icons.diagrams.net/icon-cache1/Phosphor_Thin_Vol_3-1982/function-thin-1228.svg;imageBorder=default;perimeter=rectanglePerimeter;perimeterSpacing=0;imageBackground=light-dark(#FFCE9F,#121212);fontSize=16;fontFamily=Verdana;" parent="1" vertex="1">
          <mxGeometry x="655" y="358" width="46" height="46" as="geometry" />
        </mxCell>
        <mxCell id="enffz51KQ3bBpn6qqEa7-23" value="Use" style="endArrow=open;endSize=12;dashed=1;html=1;rounded=0;exitX=0.75;exitY=1;exitDx=0;exitDy=0;labelBackgroundColor=#FFF4C3;fontSize=16;fontFamily=Verdana;entryX=0.5;entryY=0;entryDx=0;entryDy=0;" parent="1" source="enffz51KQ3bBpn6qqEa7-11" target="enffz51KQ3bBpn6qqEa7-20" edge="1">
          <mxGeometry x="0.0168" width="160" relative="1" as="geometry">
            <mxPoint x="305" y="287" as="sourcePoint" />
            <mxPoint x="845" y="337" as="targetPoint" />
            <Array as="points">
              <mxPoint x="739" y="317" />
              <mxPoint x="845" y="317" />
            </Array>
            <mxPoint as="offset" />
          </mxGeometry>
        </mxCell>
        <mxCell id="enffz51KQ3bBpn6qqEa7-48" value="Use" style="endArrow=open;endSize=12;dashed=1;html=1;rounded=0;exitX=0.25;exitY=1;exitDx=0;exitDy=0;entryX=0.5;entryY=0;entryDx=0;entryDy=0;fontSize=16;fontFamily=Verdana;labelBackgroundColor=light-dark(#FFF4C3,#121212);" parent="1" source="enffz51KQ3bBpn6qqEa7-11" target="enffz51KQ3bBpn6qqEa7-47" edge="1">
          <mxGeometry width="160" relative="1" as="geometry">
            <mxPoint x="544" y="377" as="sourcePoint" />
            <mxPoint x="678" y="345" as="targetPoint" />
          </mxGeometry>
        </mxCell>
        <mxCell id="enffz51KQ3bBpn6qqEa7-50" value="" style="endArrow=classic;html=1;rounded=0;exitX=0;exitY=0.5;exitDx=0;exitDy=0;entryX=1;entryY=0.5;entryDx=0;entryDy=0;" parent="1" source="enffz51KQ3bBpn6qqEa7-20" target="enffz51KQ3bBpn6qqEa7-47" edge="1">
          <mxGeometry relative="1" as="geometry">
            <mxPoint x="785" y="367" as="sourcePoint" />
            <mxPoint x="701" y="368" as="targetPoint" />
          </mxGeometry>
        </mxCell>
        <mxCell id="enffz51KQ3bBpn6qqEa7-51" value="Select" style="edgeLabel;resizable=0;html=1;;align=center;verticalAlign=middle;fontSize=16;labelBackgroundColor=light-dark(#FFF4C3,#121212);" parent="enffz51KQ3bBpn6qqEa7-50" connectable="0" vertex="1">
          <mxGeometry relative="1" as="geometry" />
        </mxCell>
        <mxCell id="enffz51KQ3bBpn6qqEa7-31" value="" style="endArrow=classic;html=1;rounded=0;exitX=0.5;exitY=1;exitDx=0;exitDy=0;entryX=1;entryY=0.5;entryDx=0;entryDy=0;fontSize=16;fontFamily=Verdana;" parent="1" source="enffz51KQ3bBpn6qqEa7-21" target="enffz51KQ3bBpn6qqEa7-2" edge="1">
          <mxGeometry width="50" height="50" relative="1" as="geometry">
            <mxPoint x="939" y="436" as="sourcePoint" />
            <mxPoint x="1029" y="596" as="targetPoint" />
            <Array as="points">
              <mxPoint x="1175" y="596" />
            </Array>
          </mxGeometry>
        </mxCell>
        <mxCell id="enffz51KQ3bBpn6qqEa7-32" value="&lt;div&gt;Read&lt;/div&gt;" style="edgeLabel;html=1;align=center;verticalAlign=middle;resizable=0;points=[];fontSize=16;fontFamily=Verdana;" parent="enffz51KQ3bBpn6qqEa7-31" vertex="1" connectable="0">
          <mxGeometry x="-0.5224" y="-1" relative="1" as="geometry">
            <mxPoint x="1" y="31" as="offset" />
          </mxGeometry>
        </mxCell>
      </root>
    </mxGraphModel>
  </diagram>
</mxfile>
